<svg xmlns="http://www.w3.org/2000/svg" width="330" height="48" viewBox="0 0 330 48" role="img" aria-labelledby="title desc">
  <title id="title">MerchantCanvas</title>
  <desc id="desc">Light-theme MerchantCanvas logo in midnight ink and signal cobalt.</desc>
  <g transform="translate(0 4) scale(.625)">
    <path fill="#07142E" d="M6 6H28V16H16V28H6Z M36 6H58V28H48V16H36Z M6 36H16V48H28V58H6Z"/>
    <path fill="#164BFF" d="M48 36H58V58H36V48H48Z"/>
  </g>
  <path fill="#07142E" d="M54.24 36.4V13.36H57.79405859375L65.70025390625 29.471107421874997L73.593646484375 13.36H77.156240234375V36.395732421874996H73.45498437500001V21.833427734375L66.463986328125 36.4H64.93225390625L57.941255859375 21.833427734375V36.4ZM89.13490234375 36.879999999999995Q86.50664160156249 36.879999999999995 84.5167822265625 35.74133447265625Q82.52692285156249 34.6026689453125 81.40746142578124 32.58933447265625Q80.288 30.576 80.288 27.954126953124998Q80.288 25.122126953124997 81.38559521484375 23.032528320312498Q82.4831904296875 20.942929687499998 84.42451806640625 19.79146484375Q86.36584570312499 18.639999999999997 88.91304296874999 18.639999999999997Q91.6010361328125 18.639999999999997 93.48583203125 19.898662109374996Q95.3706279296875 21.15732421875 96.28582861328124 23.451718749999998Q97.20102929687499 25.746113281249997 96.96530371093749 28.865042968749997H93.043251953125V27.41867578125Q93.03044921875 24.633578125 92.08162597656249 23.36262109375Q91.13280273437499 22.091664062499998 89.0794375 22.091664062499998Q86.7423466796875 22.091664062499998 85.60792822265626 23.5354169921875Q84.473509765625 24.979169921875 84.473509765625 27.759999999999998Q84.473509765625 30.346703124999998 85.60792822265626 31.7627236328125Q86.7423466796875 33.178744140625 88.91304296874999 33.178744140625Q90.308267578125 33.178744140625 91.31415429687499 32.558998046875Q92.320041015625 31.939251953124998 92.8640546875 30.772294921874998L96.785029296875 31.9392109375Q95.7983603515625 34.285873046875 93.71676513671875 35.582936523437496Q91.63516992187499 36.879999999999995 89.13490234375 36.879999999999995ZM83.23193164062499 28.865042968749997V25.884830078125H95.03787304687499V28.865042968749997ZM100.176 36.4V19.119999999999997H103.670326171875V23.331197265625L103.25432617187501 22.787197265624997Q103.581791015625 21.916802734374997 104.12258691406251 21.197873046874996Q104.6633828125 20.478943359375 105.42390429687501 20.01174609375Q106.0585732421875 19.5872041015625 106.82551318359376 19.351999999999997Q107.592453125 19.1167958984375 108.40205859375001 19.060795898437497Q109.2116640625 19.004795898437497 109.991396484375 19.119999999999997V22.812720703125Q109.22445312500001 22.5865869140625 108.23937939453126 22.669255859375Q107.25430566406251 22.751924804687498 106.45003125000001 23.198874999999997Q105.6628271484375 23.6170224609375 105.15509814453125 24.27037060546875Q104.647369140625 24.92371875 104.400974609375 25.7669296875Q104.15458007812501 26.610140625 104.15458007812501 27.61067578125V36.4ZM119.846380859375 36.879999999999995Q117.1733173828125 36.879999999999995 115.2767890625 35.6864013671875Q113.3802607421875 34.492802734375 112.3733310546875 32.429869628906246Q111.36640136718749 30.3669365234375 111.36 27.759999999999998Q111.36640136718749 25.1167958984375 112.4090634765625 23.0549296875Q113.4517255859375 20.993063476562497 115.36212011718749 19.81653173828125Q117.2725146484375 18.639999999999997 119.90184570312499 18.639999999999997Q122.8703603515625 18.639999999999997 124.9167548828125 20.130655273437497Q126.9631494140625 21.621310546874998 127.566888671875 24.203691406249998L123.62457617187499 25.274607421874997Q123.1957666015625 23.887931640625 122.17121777343749 23.114593749999997Q121.1466689453125 22.341255859374996 119.846380859375 22.341255859374996Q118.36369140625 22.341255859374996 117.41114257812501 23.047931640625Q116.45859375 23.754607421875 116.004185546875 24.979691406249998Q115.54977734375 26.204775390625 115.545509765625 27.759999999999998Q115.55191113281249 30.184569335937496 116.63406201171875 31.681656738281248Q117.716212890625 33.178744140625 119.846380859375 33.178744140625Q121.37599316406249 33.178744140625 122.23787988281249 32.4790048828125Q123.0997666015625 31.779265624999997 123.537111328125 30.47151953125L127.566888671875 31.352576171875Q126.7860791015625 34.01495703125 124.77648730468749 35.447478515624994Q122.76689550781249 36.879999999999995 119.846380859375 36.879999999999995ZM142.316830078125 36.4V28.107705078125Q142.316830078125 27.347135742187497 142.21122119140625 26.3695234375Q142.1056123046875 25.3919111328125 141.71626757812498 24.46924560546875Q141.3269228515625 23.546580078124997 140.5285146484375 22.948185546874996Q139.7301064453125 22.349791015624998 138.34450781249998 22.349791015624998Q137.64794531249998 22.349791015624998 136.94499853515623 22.57593505859375Q136.2420517578125 22.802079101562498 135.6649814453125 23.36689208984375Q135.0879111328125 23.931705078125 134.73324560546877 24.9439794921875Q134.378580078125 25.956253906249998 134.378580078125 27.542380859375L132.049015625 26.520548828124998Q132.049015625 24.350922851562498 132.9002197265625 22.555722167968746Q133.75142382812498 20.760521484374998 135.414888671875 19.692795898437495Q137.078353515625 18.625070312499997 139.53700195312499 18.625070312499997Q141.47298144531248 18.625070312499997 142.72844287109373 19.27039453125Q143.98390429687498 19.91571875 144.7151083984375 20.92370849609375Q145.4463125 21.931698242187498 145.78872070312502 23.057561035156247Q146.13112890625 24.183423828125 146.2271357421875 25.17330029296875Q146.323142578125 26.1631767578125 146.323142578125 26.742408203125V36.4ZM130.372267578125 36.4V13.36H133.894326171875V25.434716796874998H134.378580078125V36.4ZM154.92587304687498 36.879999999999995Q153.04853515624998 36.879999999999995 151.75520068359373 36.16906689453125Q150.4618662109375 35.4581337890625 149.79893310546873 34.27146826171875Q149.136 33.084802734374996 149.136 31.65760546875Q149.136 30.4149296875 149.54347509765626 29.42186279296875Q149.9509501953125 28.4287958984375 150.80802392578124 27.69333447265625Q151.66509765625 26.957873046875 153.035759765625 26.480013671875Q154.06830859375 26.134415039062496 155.44858642578123 25.86774951171875Q156.82886425781248 25.601083984375 158.4789912109375 25.36481982421875Q160.1291181640625 25.128555664062496 161.97228124999998 24.852294921875L160.54937890624998 25.643746093749996Q160.5600478515625 23.905036132812498 159.76323486328124 23.08154736328125Q158.96642187499998 22.25805859375 157.06771874999998 22.25805859375Q155.94555078125 22.25805859375 154.86820947265625 22.78927294921875Q153.7908681640625 23.320487304687497 153.359931640625 24.613310546875L149.75253515625 23.48053515625Q150.3978662109375 21.30239453125 152.20266552734375 19.971197265624998Q154.00746484375 18.639999999999997 157.07625390625 18.639999999999997Q159.3791904296875 18.639999999999997 161.13171875 19.380274414062498Q162.88424707031248 20.120548828125 163.7514375 21.840013671875Q164.225029296875 22.757337890624996 164.321029296875 23.710936523437496Q164.417029296875 24.664535156249997 164.417029296875 25.805859374999997V36.4H160.95043554687498V32.690099609375L161.50723828124998 33.332212890625Q160.3200546875 35.1722333984375 158.77817138671875 36.02611669921875Q157.2362880859375 36.879999999999995 154.92587304687498 36.879999999999995ZM155.721578125 33.733392578125Q157.011197265625 33.733392578125 157.91628125 33.27631884765625Q158.82136523437498 32.8192451171875 159.36270996093748 32.17815771484375Q159.9040546875 31.5370703125 160.08858984375 30.981296874999998Q160.3968505859375 30.251691406249996 160.44538232421874 29.30395556640625Q160.49391406249998 28.3562197265625 160.49391406249998 27.755691406249998L161.69709765624998 28.105564453124998Q159.9061953125 28.393557617187497 158.66672021484374 28.598888671875Q157.42724511718748 28.8042197265625 156.56748535156248 28.98555419921875Q155.70772558593748 29.166888671875 155.043169921875 29.391958984374998Q154.38396582031248 29.639423828124997 153.93328662109374 29.951427246093747Q153.482607421875 30.263430664062497 153.247396484375 30.668775390624997Q153.012185546875 31.074120117187498 153.012185546875 31.606408203125Q153.012185546875 32.2304150390625 153.32418896484376 32.710960449218746Q153.63619238281248 33.191505859375 154.23887158203124 33.462449218749995Q154.84155078125 33.733392578125 155.721578125 33.733392578125ZM180.108830078125 36.4V28.107705078125Q180.108830078125 27.347135742187497 180.00322119140625 26.3695234375Q179.8976123046875 25.3919111328125 179.50826757812501 24.46924560546875Q179.1189228515625 23.546580078124997 178.3205146484375 22.948185546874996Q177.5221064453125 22.349791015624998 176.13650781249999 22.349791015624998Q175.4399453125 22.349791015624998 174.73699853515626 22.57593505859375Q174.0340517578125 22.802079101562498 173.45698144531252 23.36689208984375Q172.8799111328125 23.931705078125 172.52524560546874 24.9439794921875Q172.170580078125 25.956253906249998 172.170580078125 27.542380859375L169.841015625 26.520548828124998Q169.841015625 24.350922851562498 170.69221972656248 22.555722167968746Q171.543423828125 20.760521484374998 173.206888671875 19.692795898437495Q174.870353515625 18.625070312499997 177.329001953125 18.625070312499997Q179.2649814453125 18.625070312499997 180.52044287109373 19.27039453125Q181.775904296875 19.91571875 182.5071083984375 20.92370849609375Q183.2383125 21.931698242187498 183.580720703125 23.057561035156247Q183.92312890624999 24.183423828125 184.01913574218747 25.17330029296875Q184.115142578125 26.1631767578125 184.115142578125 26.742408203125V36.4ZM168.164267578125 36.4V19.119999999999997H171.686326171875V24.553537109375H172.170580078125V36.4ZM198.063958984375 36.4Q196.3381064453125 36.7295986328125 194.67891943359376 36.685331054687495Q193.019732421875 36.6410634765625 191.71574267578126 36.0773310546875Q190.4117529296875 35.513598632812496 189.7354921875 34.273070312499996Q189.1296328125 33.1338798828125 189.0954990234375 31.9568232421875Q189.061365234375 30.7797666015625 189.061365234375 29.28537890625V14.319999999999997H193.012212890625V29.063519531249998Q193.012212890625 30.0864560546875 193.036212890625 30.878452636718748Q193.060212890625 31.670449218749997 193.364212890625 32.16751953125Q193.940212890625 33.1115263671875 195.2020791015625 33.216064941406245Q196.4639453125 33.320603515624995 198.063958984375 33.095533203125ZM185.968 22.211142578125V19.119999999999997H198.063958984375V22.211142578125ZM211.21704296875 36.879999999999995Q207.76317675781252 36.879999999999995 205.28691601562502 35.371732421874995Q202.8106552734375 33.863464843749995 201.48532763671875 31.159464843749998Q200.16000000000003 28.45546484375 200.16000000000003 24.88Q200.16000000000003 21.304535156249997 201.48532763671875 18.600535156249997Q202.8106552734375 15.89653515625 205.28691601562502 14.388267578125Q207.76317675781252 12.879999999999999 211.21704296875 12.879999999999999Q215.19357812500002 12.879999999999999 217.85863818359377 14.86613720703125Q220.52369824218752 16.8522744140625 221.59569140625 20.231478515625L217.60857617187503 21.327986328125Q216.951505859375 19.103958984374998 215.35362255859377 17.8564736328125Q213.7557392578125 16.60898828125 211.21704296875 16.60898828125Q208.92262109375002 16.60898828125 207.39247363281254 17.63619921875Q205.86232617187503 18.66341015625 205.09218554687502 20.52369482421875Q204.322044921875 22.3839794921875 204.31777734375 24.88Q204.313509765625 27.3760205078125 205.083650390625 29.23523828125Q205.853791015625 31.094456054687498 207.38820605468752 32.12273388671875Q208.92262109375002 33.15101171875 211.21704296875 33.15101171875Q213.7557392578125 33.15101171875 215.35362255859377 31.8955263671875Q216.951505859375 30.640041015625 217.60857617187503 28.432013671874998L221.59569140625 29.528521484375Q220.52369824218752 32.9077255859375 217.85863818359377 34.89386279296875Q215.19357812500002 36.879999999999995 211.21704296875 36.879999999999995ZM229.565873046875 36.879999999999995Q227.68853515625 36.879999999999995 226.39520068359377 36.16906689453125Q225.10186621093752 35.4581337890625 224.43893310546878 34.27146826171875Q223.776 33.084802734374996 223.776 31.65760546875Q223.776 30.4149296875 224.18347509765624 29.42186279296875Q224.5909501953125 28.4287958984375 225.44802392578126 27.69333447265625Q226.30509765625 26.957873046875 227.675759765625 26.480013671875Q228.70830859375002 26.134415039062496 230.08858642578127 25.86774951171875Q231.4688642578125 25.601083984375 233.1189912109375 25.36481982421875Q234.76911816406252 25.128555664062496 236.61228125000002 24.852294921875L235.18937890625 25.643746093749996Q235.20004785156252 23.905036132812498 234.40323486328128 23.08154736328125Q233.60642187500002 22.25805859375 231.70771875 22.25805859375Q230.58555078125002 22.25805859375 229.50820947265626 22.78927294921875Q228.4308681640625 23.320487304687497 227.99993164062502 24.613310546875L224.39253515625 23.48053515625Q225.03786621093752 21.30239453125 226.84266552734377 19.971197265624998Q228.64746484375002 18.639999999999997 231.71625390625002 18.639999999999997Q234.0191904296875 18.639999999999997 235.77171875 19.380274414062498Q237.5242470703125 20.120548828125 238.3914375 21.840013671875Q238.865029296875 22.757337890624996 238.961029296875 23.710936523437496Q239.05702929687502 24.664535156249997 239.05702929687502 25.805859374999997V36.4H235.590435546875V32.690099609375L236.14723828125 33.332212890625Q234.96005468750002 35.1722333984375 233.41817138671877 36.02611669921875Q231.87628808593752 36.879999999999995 229.565873046875 36.879999999999995ZM230.36157812500002 33.733392578125Q231.651197265625 33.733392578125 232.55628125 33.27631884765625Q233.46136523437502 32.8192451171875 234.00270996093752 32.17815771484375Q234.54405468750002 31.5370703125 234.72858984375 30.981296874999998Q235.03685058593751 30.251691406249996 235.08538232421876 29.30395556640625Q235.1339140625 28.3562197265625 235.1339140625 27.755691406249998L236.33709765625002 28.105564453124998Q234.5461953125 28.393557617187497 233.30672021484375 28.598888671875Q232.0672451171875 28.8042197265625 231.2074853515625 28.98555419921875Q230.3477255859375 29.166888671875 229.68316992187502 29.391958984374998Q229.0239658203125 29.639423828124997 228.57328662109376 29.951427246093747Q228.12260742187502 30.263430664062497 227.88739648437502 30.668775390624997Q227.65218554687502 31.074120117187498 227.65218554687502 31.606408203125Q227.65218554687502 32.2304150390625 227.96418896484374 32.710960449218746Q228.2761923828125 33.191505859375 228.87887158203125 33.462449218749995Q229.48155078125 33.733392578125 230.36157812500002 33.733392578125ZM254.74883007812502 36.4V28.107705078125Q254.74883007812502 27.347135742187497 254.64322119140627 26.3695234375Q254.5376123046875 25.3919111328125 254.148267578125 24.46924560546875Q253.75892285156252 23.546580078124997 252.9605146484375 22.948185546874996Q252.1621064453125 22.349791015624998 250.7765078125 22.349791015624998Q250.0799453125 22.349791015624998 249.37699853515625 22.57593505859375Q248.67405175781252 22.802079101562498 248.0969814453125 23.36689208984375Q247.51991113281252 23.931705078125 247.16524560546878 24.9439794921875Q246.810580078125 25.956253906249998 246.810580078125 27.542380859375L244.48101562500003 26.520548828124998Q244.48101562500003 24.350922851562498 245.33221972656253 22.555722167968746Q246.183423828125 20.760521484374998 247.846888671875 19.692795898437495Q249.510353515625 18.625070312499997 251.969001953125 18.625070312499997Q253.9049814453125 18.625070312499997 255.16044287109375 19.27039453125Q256.415904296875 19.91571875 257.14710839843747 20.92370849609375Q257.8783125 21.931698242187498 258.22072070312504 23.057561035156247Q258.56312890625003 24.183423828125 258.6591357421875 25.17330029296875Q258.755142578125 26.1631767578125 258.755142578125 26.742408203125V36.4ZM242.804267578125 36.4V19.119999999999997H246.32632617187502V24.553537109375H246.810580078125V36.4ZM267.2 36.4 260.928 19.119999999999997H264.8873828125L269.183958984375 31.536095703125L273.47626757812503 19.119999999999997H277.43991796875L271.16791796875003 36.4ZM283.805873046875 36.879999999999995Q281.92853515625 36.879999999999995 280.6352006835938 36.16906689453125Q279.3418662109375 35.4581337890625 278.67893310546873 34.27146826171875Q278.01599999999996 33.084802734374996 278.01599999999996 31.65760546875Q278.01599999999996 30.4149296875 278.42347509765625 29.42186279296875Q278.8309501953125 28.4287958984375 279.68802392578124 27.69333447265625Q280.54509765625 26.957873046875 281.915759765625 26.480013671875Q282.94830859374997 26.134415039062496 284.3285864257812 25.86774951171875Q285.7088642578125 25.601083984375 287.35899121093746 25.36481982421875Q289.0091181640625 25.128555664062496 290.85228125 24.852294921875L289.42937890625 25.643746093749996Q289.4400478515625 23.905036132812498 288.64323486328124 23.08154736328125Q287.846421875 22.25805859375 285.94771875 22.25805859375Q284.82555078125 22.25805859375 283.74820947265624 22.78927294921875Q282.6708681640625 23.320487304687497 282.239931640625 24.613310546875L278.63253515625 23.48053515625Q279.2778662109375 21.30239453125 281.0826655273437 19.971197265624998Q282.88746484374997 18.639999999999997 285.95625390624997 18.639999999999997Q288.25919042968746 18.639999999999997 290.01171875 19.380274414062498Q291.7642470703125 20.120548828125 292.6314375 21.840013671875Q293.105029296875 22.757337890624996 293.201029296875 23.710936523437496Q293.297029296875 24.664535156249997 293.297029296875 25.805859374999997V36.4H289.830435546875V32.690099609375L290.38723828125 33.332212890625Q289.20005468749997 35.1722333984375 287.6581713867187 36.02611669921875Q286.11628808593747 36.879999999999995 283.805873046875 36.879999999999995ZM284.601578125 33.733392578125Q285.891197265625 33.733392578125 286.79628125 33.27631884765625Q287.701365234375 32.8192451171875 288.2427099609375 32.17815771484375Q288.7840546875 31.5370703125 288.96858984375 30.981296874999998Q289.2768505859375 30.251691406249996 289.3253823242187 29.30395556640625Q289.3739140625 28.3562197265625 289.3739140625 27.755691406249998L290.57709765625 28.105564453124998Q288.7861953125 28.393557617187497 287.54672021484373 28.598888671875Q286.3072451171875 28.8042197265625 285.4474853515625 28.98555419921875Q284.5877255859375 29.166888671875 283.923169921875 29.391958984374998Q283.2639658203125 29.639423828124997 282.81328662109377 29.951427246093747Q282.362607421875 30.263430664062497 282.127396484375 30.668775390624997Q281.892185546875 31.074120117187498 281.892185546875 31.606408203125Q281.892185546875 32.2304150390625 282.20418896484375 32.710960449218746Q282.5161923828125 33.191505859375 283.11887158203126 33.462449218749995Q283.72155078125 33.733392578125 284.601578125 33.733392578125ZM303.76425390625 36.875732421875Q300.5450634765625 36.875732421875 298.54666552734375 35.429873046875Q296.548267578125 33.984013671875 296.11199999999997 31.352562499999998L300.1503125 30.736041015625Q300.443650390625 32.003251953125 301.4671357421875 32.7275263671875Q302.49062109375 33.45180078125 304.045845703125 33.45180078125Q305.38561230468747 33.45180078125 306.12483349609374 32.92218505859375Q306.8640546875 32.392569335937495 306.8640546875 31.454943359374997Q306.8640546875 30.885331054687498 306.586716796875 30.5349228515625Q306.30937890625 30.1845146484375 305.378703125 29.8549091796875Q304.44802734374997 29.5253037109375 302.51201367187497 29.010099609374997Q300.3530703125 28.449029296874997 299.0752006835937 27.782363769531248Q297.7973310546875 27.1156982421875 297.2383979492188 26.19890234375Q296.67946484375 25.2821064453125 296.67946484375 23.977578125Q296.67946484375 22.351986328124998 297.52319726562496 21.15039111328125Q298.3669296875 19.9487958984375 299.89706005859375 19.294397949218748Q301.42719042968747 18.639999999999997 303.495451171875 18.639999999999997Q305.510380859375 18.639999999999997 307.0730463867187 19.265066894531248Q308.6357119140625 19.8901337890625 309.5994443359375 21.03893310546875Q310.56317675781247 22.187732421874998 310.7765078125 23.7429296875L306.7381953125 24.470380859375Q306.60058984375 23.397290039062497 305.7706997070312 22.772209472656247Q304.94080957031247 22.147128906249996 303.565845703125 22.063931640625Q302.237818359375 21.9903330078125 301.424466796875 22.4586142578125Q300.611115234375 22.926895507812496 300.611115234375 23.774916015624996Q300.611115234375 24.2719931640625 300.9433862304687 24.61333447265625Q301.2756572265625 24.954675781249996 302.2820620117187 25.296013671874995Q303.288466796875 25.637351562499997 305.308734375 26.149351562499998Q307.3599521484375 26.6805556640625 308.5860927734375 27.359488769531247Q309.8122333984375 28.038421874999997 310.3615678710937 28.982953613281246Q310.91090234374997 29.9274853515625 310.91090234374997 31.2693515625Q310.91090234374997 33.8848095703125 309.012240234375 35.38027099609375Q307.113578125 36.875732421875 303.76425390625 36.875732421875Z"/>
</svg>
